<svg width="200" height="200" viewBox="0 0 200 200" fill="none" xmlns="http://www.w3.org/2000/svg">
<rect width="200" height="200" fill="#0284C7"/>
<path d="M159.023 117.461C160.812 114.203 161.828 110.5 161.828 106.555C161.828 94.0469 151.632 83.8437 138.842 83.2969C136.608 75.0703 128.873 69 119.669 69C110.465 69 102.129 75.5469 100.27 84.2656C97.0662 82.7344 93.4644 81.875 89.6517 81.875C78.8697 81.875 69.7442 88.7344 66.6893 98.1953C64.7048 97.3984 62.525 96.9531 60.2436 96.9531C50.9852 96.9531 43.4769 104.219 43.4769 113.18C43.4769 114.406 43.6254 115.594 43.891 116.742C40.5158 117.547 38 120.492 38 124.008C38 128.148 41.469 131.5 45.7427 131.5H155.257C159.531 131.5 163 128.148 163 124.008C163 121.195 161.391 118.742 159.023 117.461V117.461Z" fill="white"/>
</svg>
