<svg width="200" height="200" viewBox="0 0 200 200" fill="none" xmlns="http://www.w3.org/2000/svg">
<rect width="200" height="200" fill="#E11D48"/>
<g clip-path="url(#clip0_1_20)">
<path d="M99.4922 50.5664C98.6718 50.1953 97.7929 50 96.875 50C95.957 50 95.0781 50.1953 94.2578 50.5664L57.4804 66.1719C53.1836 67.9883 49.9804 72.2266 50 77.3438C50.0976 96.7187 58.0664 132.168 91.7187 148.281C94.9804 149.844 98.7695 149.844 102.031 148.281C135.684 132.168 143.652 96.7187 143.75 77.3438C143.769 72.2266 140.566 67.9883 136.27 66.1719L99.4922 50.5664ZM78.3007 105.898C79.2382 106.133 80.2343 106.25 81.25 106.25C88.1445 106.25 93.75 100.645 93.75 93.75V81.25H102.383C104.746 81.25 106.914 82.5781 107.969 84.707L109.375 87.5H121.875C123.594 87.5 125 88.9062 125 90.625V96.875C125 105.508 118.008 112.5 109.375 112.5H100V122.402C100 123.828 98.8476 125 97.4023 125C97.0507 125 96.6992 124.922 96.3867 124.785L77.1093 116.523C75.8203 115.977 75 114.707 75 113.32C75 112.773 75.1172 112.246 75.3711 111.758L78.3007 105.898ZM78.125 81.25H87.5V93.75C87.5 97.207 84.707 100 81.25 100C77.7929 100 75 97.207 75 93.75V84.375C75 82.6562 76.4062 81.25 78.125 81.25ZM103.125 90.625C103.125 89.7962 102.796 89.0013 102.21 88.4153C101.624 87.8292 100.829 87.5 100 87.5C99.1712 87.5 98.3763 87.8292 97.7903 88.4153C97.2042 89.0013 96.875 89.7962 96.875 90.625C96.875 91.4538 97.2042 92.2487 97.7903 92.8347C98.3763 93.4208 99.1712 93.75 100 93.75C100.829 93.75 101.624 93.4208 102.21 92.8347C102.796 92.2487 103.125 91.4538 103.125 90.625Z" fill="white"/>
</g>
<defs>
<clipPath id="clip0_1_20">
<rect width="100" height="100" fill="white" transform="translate(50 50)"/>
</clipPath>
</defs>
</svg>
