<svg width="200" height="200" viewBox="0 0 200 200" fill="none" xmlns="http://www.w3.org/2000/svg">
<rect width="200" height="200" fill="#9333EA"/>
<path fill-rule="evenodd" clip-rule="evenodd" d="M99.9718 54.0007C97.4801 53.999 95.0126 54.4893 92.7108 55.4435C90.409 56.3976 88.3183 57.7969 86.5585 59.561C86.3334 59.7861 86.1111 60.0189 85.8986 60.2513C87.4704 62.3421 88.6423 64.7055 89.3551 67.2224C89.9101 66.1992 90.6123 65.2631 91.4393 64.4439C92.7741 63.1137 94.4013 62.1139 96.1911 61.5242C97.9809 60.9345 99.8837 60.7712 101.748 61.0474C103.612 61.3236 105.386 62.0316 106.928 63.1149C108.469 64.1982 109.737 65.6269 110.629 67.287C111.332 64.7591 112.502 62.3849 114.078 60.2866C113.853 60.0409 113.63 59.798 113.392 59.5628C111.631 57.7981 109.539 56.3984 107.236 55.4441C104.933 54.4898 102.464 53.9997 99.9711 54.0018L99.9718 54.0007ZM81.9253 120.871C80.9974 123.719 80.7571 126.747 81.2242 129.707C81.6912 132.666 82.8523 135.473 84.6124 137.897C86.3725 140.322 88.6816 142.295 91.3507 143.656C94.0199 145.016 96.9733 145.725 99.9693 145.725C102.965 145.725 105.919 145.016 108.588 143.656C111.257 142.295 113.566 140.322 115.326 137.897C117.086 135.473 118.247 132.666 118.714 129.707C119.181 126.747 118.941 123.719 118.013 120.871C117.177 120.97 116.336 121.02 115.495 121.019C113.712 121.021 111.937 120.796 110.212 120.349C111.352 122.177 111.983 124.276 112.039 126.43C112.094 128.584 111.572 130.713 110.527 132.597C109.482 134.481 107.952 136.051 106.096 137.144C104.24 138.237 102.124 138.813 99.9702 138.813C97.8159 138.813 95.7009 138.237 93.8445 137.144C91.9881 136.051 90.4581 134.481 89.4131 132.597C88.3682 130.713 87.8464 128.584 87.9018 126.43C87.9573 124.276 88.588 122.177 89.7285 120.349C87.1819 121.004 84.5364 121.181 81.9253 120.871ZM110.629 78.6669C110.509 78.8946 110.384 79.1118 110.243 79.3316C109.753 80.1249 109.172 80.8577 108.511 81.515C106.341 83.69 103.422 84.9533 100.352 85.0463C100.226 85.0513 100.096 85.0513 99.9707 85.0513C99.8455 85.0513 99.7124 85.0513 99.5796 85.0463C99.7124 85.1794 99.843 85.3147 99.9682 85.4504C100.473 85.9921 100.948 86.5614 101.39 87.1557C102.409 88.509 103.259 89.9815 103.921 91.5407C104.211 92.2212 104.466 92.9159 104.686 93.6221C104.739 93.7985 104.788 93.9775 104.842 94.1539C104.959 93.9374 105.09 93.7115 105.225 93.4943C106.163 91.9782 107.425 90.6885 108.92 89.7177C109.268 89.4883 109.63 89.2792 110.002 89.0913C111.229 88.321 112.366 87.4153 113.39 86.3911C113.628 86.1609 113.85 85.9181 114.076 85.6694C114.585 85.1055 115.06 84.5112 115.497 83.8898C116.151 82.9614 116.72 81.9765 117.198 80.9467C117.518 80.2574 117.795 79.5486 118.026 78.8246C118.637 76.9347 118.948 74.9608 118.949 72.9746C118.949 70.5863 119.657 68.2517 120.984 66.2659C122.311 64.2801 124.197 62.7324 126.404 61.8185C128.61 60.9046 131.038 60.6654 133.38 61.1314C135.723 61.5973 137.874 62.7473 139.563 64.4361C141.252 66.1248 142.402 68.2764 142.868 70.6188C143.334 72.9612 143.095 75.3892 142.181 77.5957C141.267 79.8022 139.72 81.6882 137.734 83.0152C135.748 84.3421 133.414 85.0504 131.025 85.0506C130.89 85.0506 130.762 85.0506 130.634 85.0455C128.838 84.9907 127.076 84.5337 125.48 83.7082C125.144 83.5372 124.812 83.3402 124.492 83.1381C123.767 82.6689 123.094 82.1247 122.483 81.5143C121.824 80.8584 121.245 80.1274 120.757 79.3363C120.617 79.1195 120.488 78.8959 120.371 78.6662C120.317 78.8466 120.266 79.0292 120.21 79.2031C119.995 79.9101 119.742 80.6049 119.452 81.2845C118.787 82.8432 117.935 84.3156 116.916 85.6694C116.472 86.2612 115.999 86.8296 115.496 87.3723C115.371 87.5079 115.244 87.6436 115.108 87.7814C115.241 87.7713 115.364 87.7713 115.491 87.7713C115.619 87.7713 115.752 87.7713 115.877 87.7814C117.675 87.8309 119.439 88.2874 121.035 89.1166C121.372 89.2895 121.699 89.4798 122.016 89.6867C124.785 91.1764 127.881 91.9557 131.025 91.9546C131.587 91.9546 132.155 91.9265 132.717 91.8756C136.311 91.5532 139.738 90.2131 142.598 88.0122C145.457 85.8114 147.63 82.8411 148.861 79.4495C150.092 76.0579 150.331 72.3856 149.55 68.863C148.768 65.3405 146.999 62.1137 144.449 59.561C140.872 55.9944 136.075 54 131.028 54C128.535 53.9981 126.066 54.4884 123.763 55.4426C121.46 56.3969 119.368 57.7964 117.607 59.561C117.371 59.7962 117.141 60.0391 116.919 60.2848C113.781 63.7665 112.046 68.2877 112.047 72.9746C112.049 74.9596 111.563 76.9152 110.629 78.6669ZM105.252 106.248C105.108 106.013 104.969 105.782 104.844 105.54C103.906 103.788 103.416 101.832 103.419 99.8455C103.42 97.8604 103.11 95.8875 102.501 93.9981C102.267 93.2742 101.989 92.5655 101.668 91.8759C100.873 90.1536 99.8212 88.5621 98.5483 87.1557C98.3257 86.9053 98.0983 86.6621 97.8627 86.4297C96.8269 85.3934 95.6746 84.4804 94.4289 83.709C94.094 83.5379 93.7668 83.3409 93.4445 83.1388C92.7215 82.669 92.0497 82.1248 91.44 81.515C90.7789 80.8598 90.1975 80.1287 89.708 79.337C89.5824 79.1374 89.4698 78.9328 89.3572 78.7282C89.3168 78.8917 89.2627 79.0555 89.2169 79.2139C88.9971 79.9201 88.7419 80.6148 88.4522 81.2953C87.7821 82.8612 86.9252 84.3404 85.9004 85.7008C86.1129 85.9412 86.3334 86.1699 86.5603 86.3911C87.5932 87.4312 88.7448 88.3461 89.9916 89.1169C90.3284 89.29 90.6561 89.4803 90.9735 89.6871C91.6979 90.1559 92.3714 90.6991 92.983 91.308C93.6414 91.9658 94.2226 92.6967 94.7151 93.4864C94.8504 93.7065 94.9781 93.9317 95.0983 94.1539C96.0338 95.9052 96.523 97.8601 96.5225 99.8455C96.5207 102.612 97.1228 105.345 98.2867 107.854C98.7598 108.871 99.3238 109.844 99.9718 110.761C100.41 111.382 100.885 111.976 101.394 112.54C101.616 112.786 101.844 113.029 102.079 113.262C103.84 115.026 105.932 116.424 108.234 117.378C110.537 118.332 113.005 118.821 115.497 118.819C116.06 118.819 116.623 118.793 117.178 118.743C117.937 118.678 118.692 118.565 119.438 118.405C123.002 117.656 126.288 115.881 128.916 113.26C130.681 111.5 132.08 109.408 133.034 107.106C133.987 104.803 134.477 102.334 134.473 99.8419C134.472 97.8584 134.164 95.887 133.558 93.9981C132.719 94.1007 131.875 94.1511 131.03 94.1489C129.253 94.1513 127.482 93.9287 125.761 93.4864C126.896 95.3151 127.521 97.4138 127.571 99.5652C127.622 101.717 127.096 103.842 126.049 105.722C125.002 107.602 123.471 109.168 121.616 110.258C119.76 111.347 117.647 111.921 115.495 111.919C115.356 111.919 115.211 111.916 115.07 111.914C112.017 111.809 109.117 110.549 106.957 108.388C106.311 107.74 105.74 107.022 105.252 106.248ZM50 72.9753C49.9986 77.3122 51.4831 81.5186 54.2062 84.8939C56.9293 88.2692 60.7266 90.6097 64.9656 91.5256C66.0004 89.1177 67.4714 86.9219 69.3044 85.0488C69.1918 85.0513 69.0847 85.0513 68.9721 85.0513C66.6195 85.0517 64.318 84.3652 62.35 83.0761C60.3821 81.787 58.8334 79.9513 57.894 77.7943C56.9546 75.6374 56.6655 73.2532 57.0621 70.9342C57.4586 68.6153 58.5236 66.4626 60.1264 64.7405C61.7291 63.0183 63.7998 61.8015 66.0843 61.2396C68.3688 60.6777 70.7677 60.795 72.9865 61.5772C75.2052 62.3594 77.1473 63.7724 78.5743 65.6428C80.0014 67.5132 80.8512 69.7595 81.0196 72.106C81.0373 72.3972 81.0474 72.6863 81.0474 72.9753C81.0474 73.2644 81.038 73.5617 81.0196 73.8504C80.8959 75.5591 80.4104 77.2221 79.5953 78.729C79.4871 78.931 79.3731 79.1259 79.2554 79.3146C78.7637 80.1144 78.1792 80.8532 77.514 81.5158C76.5562 82.475 75.4437 83.266 74.2231 83.8555C71.1764 85.811 68.7477 88.5917 67.2198 91.8738C66.9 92.5636 66.6229 93.2725 66.3899 93.9963C65.5715 96.5254 65.2934 99.1983 65.5737 101.842C65.8539 104.485 66.6863 107.04 68.0168 109.342C69.3473 111.643 71.1463 113.639 73.2973 115.201C75.4483 116.763 77.9034 117.856 80.5036 118.408C81.2492 118.568 82.0041 118.681 82.7639 118.746C83.3189 118.797 83.8798 118.822 84.4465 118.823C91.7107 118.823 94.0042 114.88 99.5424 114.688C99.6868 114.686 99.8286 114.681 99.9693 114.681C100.11 114.681 100.253 114.686 100.394 114.688C100.253 114.544 100.11 114.391 99.9693 114.241C99.4641 113.696 98.99 113.126 98.5476 112.54C97.5393 111.195 96.6944 109.735 96.0307 108.191C95.7442 107.511 95.4858 106.816 95.2661 106.107C95.2074 105.918 95.1511 105.729 95.0972 105.54C94.9694 105.777 94.8341 106.013 94.6884 106.248C93.6394 107.923 92.1958 109.315 90.4841 110.303C88.7724 111.29 86.8447 111.843 84.8698 111.913C84.7319 111.916 84.5887 111.919 84.448 111.919C82.2986 111.918 80.1882 111.345 78.3345 110.257C76.4809 109.168 74.9511 107.606 73.903 105.729C72.855 103.852 72.3266 101.73 72.3724 99.5813C72.4182 97.4324 73.0365 95.3346 74.1636 93.5044C75.0622 92.0505 76.2587 90.8035 77.6742 89.8455C78.1581 89.516 78.6657 89.2229 79.193 88.9686C80.3501 88.2287 81.4228 87.3644 82.3919 86.3911C82.6167 86.1688 82.8368 85.9412 83.0515 85.7008C83.562 85.1395 84.0368 84.5468 84.4732 83.9262C85.1374 82.989 85.7142 81.9929 86.1963 80.9503C86.518 80.2622 86.7952 79.5541 87.0262 78.8304C87.5516 77.219 87.8561 75.5439 87.9315 73.8507C87.9085 73.5621 87.8983 73.2701 87.8983 72.9764C87.8983 72.6827 87.9085 72.3991 87.9315 72.1071C87.7692 68.4854 86.5693 64.9867 84.4747 62.0277C84.0356 61.409 83.5609 60.8165 83.0529 60.2531C82.8382 60.0207 82.6199 59.7879 82.3933 59.5628C80.6323 57.7981 78.5403 56.3983 76.2372 55.4439C73.934 54.4894 71.4652 53.999 68.9721 54.0007C63.925 54.0007 59.1279 55.9951 55.5512 59.5617C53.7891 61.3224 52.3916 63.4136 51.4391 65.7154C50.4865 68.0171 49.9974 70.4842 50 72.9753Z" fill="white"/>
</svg>
