<svg width="200" height="200" viewBox="0 0 200 200" fill="none" xmlns="http://www.w3.org/2000/svg">
<rect width="200" height="200" fill="#DC2626"/>
<g clip-path="url(#clip0_1_8)">
<path d="M83.1445 50.1758C78.6914 49.8633 74.9609 52.9102 73.8672 56.9531L71.5625 65.625H71.875C106.387 65.625 134.375 93.6133 134.375 128.125V128.438L143.047 126.133C147.109 125.059 150.137 121.309 149.824 116.855C147.363 81.1523 118.848 52.6367 83.1445 50.1758ZM128.086 130.117C128.105 129.453 128.125 128.789 128.125 128.125C128.125 97.0508 102.949 71.875 71.875 71.875C71.2109 71.875 70.5469 71.8945 69.8828 71.9141L50.0977 146.074C49.8047 147.148 50.1172 148.301 50.8984 149.082C51.6797 149.863 52.832 150.176 53.9063 149.883L128.086 130.117ZM84.375 90.625C86.0326 90.625 87.6223 91.2835 88.7944 92.4556C89.9665 93.6277 90.625 95.2174 90.625 96.875C90.625 98.5326 89.9665 100.122 88.7944 101.294C87.6223 102.467 86.0326 103.125 84.375 103.125C82.7174 103.125 81.1277 102.467 79.9556 101.294C78.7835 100.122 78.125 98.5326 78.125 96.875C78.125 95.2174 78.7835 93.6277 79.9556 92.4556C81.1277 91.2835 82.7174 90.625 84.375 90.625ZM96.875 115.625C96.875 113.967 97.5335 112.378 98.7056 111.206C99.8777 110.033 101.467 109.375 103.125 109.375C104.783 109.375 106.372 110.033 107.544 111.206C108.717 112.378 109.375 113.967 109.375 115.625C109.375 117.283 108.717 118.872 107.544 120.044C106.372 121.217 104.783 121.875 103.125 121.875C101.467 121.875 99.8777 121.217 98.7056 120.044C97.5335 118.872 96.875 117.283 96.875 115.625ZM68.75 125C68.75 123.342 69.4085 121.753 70.5806 120.581C71.7527 119.408 73.3424 118.75 75 118.75C76.6576 118.75 78.2473 119.408 79.4194 120.581C80.5915 121.753 81.25 123.342 81.25 125C81.25 126.658 80.5915 128.247 79.4194 129.419C78.2473 130.592 76.6576 131.25 75 131.25C73.3424 131.25 71.7527 130.592 70.5806 129.419C69.4085 128.247 68.75 126.658 68.75 125Z" fill="white"/>
</g>
<defs>
<clipPath id="clip0_1_8">
<rect width="100" height="100" fill="white" transform="translate(50 50)"/>
</clipPath>
</defs>
</svg>
