<svg width="200" height="200" viewBox="0 0 200 200" fill="none" xmlns="http://www.w3.org/2000/svg">
<rect width="200" height="200" fill="#2563EB"/>
<g clip-path="url(#clip0_1_14)">
<path d="M100 150C113.261 150 125.979 144.732 135.355 135.355C144.732 125.979 150 113.261 150 100C150 86.7392 144.732 74.0215 135.355 64.6447C125.979 55.2678 113.261 50 100 50C86.7392 50 74.0215 55.2678 64.6447 64.6447C55.2678 74.0215 50 86.7392 50 100C50 113.261 55.2678 125.979 64.6447 135.355C74.0215 144.732 86.7392 150 100 150ZM83.1641 82.2852C84.707 77.9297 88.8477 75 93.4766 75H104.863C111.68 75 117.188 80.5273 117.188 87.3242C117.188 91.7383 114.824 95.8203 110.996 98.0273L104.688 101.641C104.648 104.18 102.559 106.25 100 106.25C97.4023 106.25 95.3125 104.16 95.3125 101.562V98.9258C95.3125 97.2461 96.2109 95.7031 97.6758 94.8633L106.328 89.9023C107.246 89.375 107.812 88.3984 107.812 87.3437C107.812 85.7031 106.484 84.3945 104.863 84.3945H93.4766C92.8125 84.3945 92.2266 84.8047 92.0117 85.4297L91.9336 85.6641C91.0742 88.1055 88.3789 89.375 85.957 88.5156C83.5352 87.6562 82.2461 84.9609 83.1055 82.5391L83.1836 82.3047L83.1641 82.2852ZM93.75 118.75C93.75 117.092 94.4085 115.503 95.5806 114.331C96.7527 113.158 98.3424 112.5 100 112.5C101.658 112.5 103.247 113.158 104.419 114.331C105.592 115.503 106.25 117.092 106.25 118.75C106.25 120.408 105.592 121.997 104.419 123.169C103.247 124.342 101.658 125 100 125C98.3424 125 96.7527 124.342 95.5806 123.169C94.4085 121.997 93.75 120.408 93.75 118.75Z" fill="white"/>
</g>
<defs>
<clipPath id="clip0_1_14">
<rect width="100" height="100" fill="white" transform="translate(50 50)"/>
</clipPath>
</defs>
</svg>
