<svg width="200" height="200" viewBox="0 0 200 200" fill="none" xmlns="http://www.w3.org/2000/svg">
<rect width="200" height="200" fill="#0284C7"/>
<path d="M60 75C60 69.4844 64.4844 65 70 65H130C135.516 65 140 69.4844 140 75V115H130V75H70V115H60V75ZM50 123C50 121.344 51.3438 120 53 120H147C148.656 120 150 121.344 150 123C150 129.625 144.625 135 138 135H62C55.375 135 50 129.625 50 123ZM93.9062 92.6562L89.0625 97.5L93.9062 102.344C95.375 103.812 95.375 106.187 93.9062 107.641C92.4375 109.094 90.0625 109.109 88.6094 107.641L81.1094 100.141C79.6406 98.6719 79.6406 96.2969 81.1094 94.8438L88.6094 87.3438C90.0781 85.875 92.4531 85.875 93.9062 87.3438C95.3594 88.8125 95.375 91.1875 93.9062 92.6406V92.6562ZM111.406 87.3438L118.906 94.8438C120.375 96.3125 120.375 98.6875 118.906 100.141L111.406 107.641C109.938 109.109 107.563 109.109 106.109 107.641C104.656 106.172 104.641 103.797 106.109 102.344L110.953 97.5L106.109 92.6562C104.641 91.1875 104.641 88.8125 106.109 87.3594C107.578 85.9063 109.953 85.8906 111.406 87.3594V87.3438Z" fill="white"/>
</svg>
