<svg width="200" height="200" viewBox="0 0 200 200" fill="none" xmlns="http://www.w3.org/2000/svg">
<rect width="200" height="200" fill="#CA8A04"/>
<g clip-path="url(#clip0_102_2)">
<path d="M94.461 50.2344C95.457 50.6445 96.1602 51.543 96.3359 52.5977L99.0899 69.1406L115.633 71.8945C116.688 72.0703 117.586 72.7734 117.996 73.7695C118.406 74.7656 118.289 75.8984 117.684 76.7773L110.164 87.5195C109.734 87.5 109.305 87.4805 108.855 87.4805C104.305 87.4805 100.047 88.6914 96.3555 90.8203V90.6055C96.3555 80.2539 87.957 71.8555 77.6055 71.8555C67.2539 71.8555 58.8555 80.2539 58.8555 90.6055C58.8555 100.957 67.2539 109.355 77.6055 109.355C79.1875 109.355 80.711 109.16 82.1758 108.789C75.0274 112.324 69.8125 119.16 68.543 127.324L63.7774 130.645C62.8985 131.27 61.7656 131.387 60.7695 130.957C59.7735 130.527 59.0703 129.648 58.8945 128.594L56.1602 112.09L39.6172 109.336C38.5625 109.16 37.6641 108.457 37.2539 107.461C36.8438 106.465 36.961 105.332 37.5664 104.453L47.2539 90.625L37.5664 76.7969C36.9414 75.918 36.8242 74.7852 37.2539 73.7891C37.6836 72.793 38.5625 72.0898 39.6172 71.9141L56.1602 69.1602L58.9141 52.6172C59.0899 51.5625 59.793 50.6641 60.7891 50.2539C61.7852 49.8437 62.918 49.9609 63.7969 50.5664L77.625 60.2539L91.4531 50.5664C92.332 49.9414 93.4649 49.8242 94.461 50.2539V50.2344ZM65.125 90.625C65.125 87.3098 66.442 84.1304 68.7862 81.7862C71.1304 79.442 74.3098 78.125 77.625 78.125C80.9402 78.125 84.1196 79.442 86.4638 81.7862C88.8081 84.1304 90.125 87.3098 90.125 90.625C90.125 93.9402 88.8081 97.1196 86.4638 99.4638C84.1196 101.808 80.9402 103.125 77.625 103.125C74.3098 103.125 71.1304 101.808 68.7862 99.4638C66.442 97.1196 65.125 93.9402 65.125 90.625ZM161.98 134.355C161.98 142.988 154.988 149.98 146.355 149.98H93.25C82.8985 149.98 74.5 141.582 74.5 131.23C74.5 121.934 81.2578 114.238 90.125 112.754V112.5C90.125 102.148 98.5235 93.75 108.875 93.75C115.691 93.75 121.648 97.3828 124.93 102.812C127.469 101.035 130.555 100 133.875 100C142.508 100 149.5 106.992 149.5 115.625C149.5 116.777 149.383 117.91 149.129 118.984C156.434 120.293 161.98 126.68 161.98 134.355Z" fill="white"/>
</g>
<defs>
<clipPath id="clip0_102_2">
<rect width="125" height="100" fill="white" transform="translate(37 50)"/>
</clipPath>
</defs>
</svg>
