<svg width="200" height="200" viewBox="0 0 200 200" fill="none" xmlns="http://www.w3.org/2000/svg">
<rect width="200" height="200" fill="#65A30D"/>
<g clip-path="url(#clip0_1_17)">
<path d="M99.75 71.875C98.0312 71.875 96.625 70.4688 96.625 68.75V65.625C96.625 56.9922 103.617 50 112.25 50H115.375C117.094 50 118.5 51.4062 118.5 53.125V56.25C118.5 64.8828 111.508 71.875 102.875 71.875H99.75ZM56 106.25C56 91.3477 62.9727 75 77.875 75C83.207 75 89.5352 77.0117 94.0273 78.7695C97.6992 80.1953 101.82 80.1953 105.492 78.7695C109.965 77.0313 116.313 75 121.645 75C136.547 75 143.52 91.3477 143.52 106.25C143.52 131.25 127.895 150 112.27 150C109.047 150 104.828 148.711 102.211 147.793C100.629 147.246 98.9102 147.246 97.3281 147.793C94.7109 148.711 90.4922 150 87.2695 150C71.625 150 56 131.25 56 106.25Z" fill="white"/>
</g>
<defs>
<clipPath id="clip0_1_17">
<rect width="87.5" height="100" fill="white" transform="translate(56 50)"/>
</clipPath>
</defs>
</svg>
