<svg width="200" height="200" viewBox="0 0 200 200" fill="none" xmlns="http://www.w3.org/2000/svg">
<rect width="200" height="200" fill="#CA8A04"/>
<g clip-path="url(#clip0_1_11)">
<path d="M63 100L68.5664 55.4688C68.957 52.3438 71.6133 50 74.7773 50H107.707C110.637 50 113 52.3633 113 55.293C113 55.918 112.883 56.5625 112.668 57.1484L103.625 81.25H130.832C134.777 81.25 138 84.4531 138 88.418C138 89.8633 137.57 91.2695 136.75 92.4609L99.2109 147.344C98.0586 149.023 96.1641 150.02 94.1523 150.02H93.5859C90.5195 150.02 88.0195 147.52 88.0195 144.453C88.0195 144.004 88.0781 143.555 88.1953 143.105L97.375 106.25H69.25C65.793 106.25 63 103.457 63 100Z" fill="white"/>
</g>
<defs>
<clipPath id="clip0_1_11">
<rect width="75" height="100" fill="white" transform="translate(63 50)"/>
</clipPath>
</defs>
</svg>
