<svg width="200" height="200" viewBox="0 0 200 200" fill="none" xmlns="http://www.w3.org/2000/svg">
<rect width="200" height="200" fill="#D97706"/>
<path d="M139.562 117.729C139.562 118.42 139.288 119.082 138.8 119.571C138.311 120.059 137.649 120.333 136.958 120.333C136.268 120.333 135.605 120.059 135.117 119.571C134.628 119.082 134.354 118.42 134.354 117.729V81.2708C134.354 71.2188 123.573 63.0417 113.521 63.0417H69.25C63.7246 63.0417 58.4256 65.2366 54.5186 69.1436C50.6116 73.0506 48.4166 78.3497 48.4166 83.875V135.958H69.25V115.125H95.2916V135.958H116.125V112.521C116.125 111.83 116.399 111.168 116.888 110.679C117.376 110.191 118.038 109.917 118.729 109.917C119.42 109.917 120.082 110.191 120.571 110.679C121.059 111.168 121.333 111.83 121.333 112.521V120.333C121.333 124.477 122.979 128.452 125.91 131.382C128.84 134.312 132.814 135.958 136.958 135.958C141.102 135.958 145.077 134.312 148.007 131.382C150.937 128.452 152.583 124.477 152.583 120.333V109.917H139.562V117.729Z" fill="white"/>
</svg>
